<?xml version="1.0" standalone="no"?><!DOCTYPE svg PUBLIC "-//W3C//DTD SVG 1.1//EN" "http://www.w3.org/Graphics/SVG/1.1/DTD/svg11.dtd"><svg t="1608532433673" class="icon" viewBox="0 0 1024 1024" version="1.1" xmlns="http://www.w3.org/2000/svg" p-id="7838" xmlns:xlink="http://www.w3.org/1999/xlink" width="200" height="200"><defs><style type="text/css"></style></defs><path d="M585.728 433.664H880.64v51.2h-294.912v-51.2z" p-id="7839" fill="#7356f1"></path><path d="M675.328 808.448l-2.56-2.56H93.696c-23.04 0-40.96-17.92-40.96-40.96V229.888c0-23.04 17.92-43.52 40.96-43.52h824.832c23.04 0 40.96 17.92 40.96 40.96v321.024l2.56 2.56c12.8 7.68 25.6 17.92 35.84 30.72l10.24 12.8V217.088c0-43.52-35.84-78.848-79.36-78.848H80.896C37.376 138.24 1.536 174.08 1.536 217.088V778.24c0 43.52 35.84 78.848 79.36 78.848h627.712l-7.68-10.24c-10.24-12.8-17.92-25.6-25.6-38.4z" p-id="7840" fill="#7356f1"></path><path d="M585.728 546.304h87.04v51.2h-87.04v-51.2zM585.728 324.096H880.64v51.2h-294.912v-51.2zM855.04 553.472c-94.72 0-168.96 73.728-168.96 168.448 0 91.648 76.8 168.448 168.96 168.448 94.72 0 168.96-73.728 168.96-168.448 0-94.208-76.8-168.448-168.96-168.448z m-2.56 270.336c-7.68 7.68-23.04 7.68-33.28 0L747.52 752.64c-7.68-7.68-7.68-23.04 0-30.72s23.04-7.68 33.28 0l56.32 56.32 110.08-107.008c7.68-7.68 23.04-7.68 33.28 0 7.68 7.68 7.68 23.04 0 30.72l-128 121.856zM186.88 366.08v220.16h-37.888v-220.16h37.888z m63.488-35.328v290.816H195.072V330.752h55.296z m94.72 0l-8.192 36.352h97.28v23.552h-102.4l-15.872 74.24H259.072l28.672-134.144h57.344z m88.576 259.072c0 15.872-13.312 29.184-29.184 29.184H261.12V480.256h172.544v109.568z m-123.904 5.632h13.312V503.808h-13.312v91.648z m87.552-193.536l19.456 62.464H360.96l-19.456-62.464h55.808z m-11.776 101.888h-13.312v91.648h4.096c5.12 0 8.704-4.096 8.704-8.704V503.808z" p-id="7841" fill="#7356f1"></path></svg>